<svg width="199" height="199" viewBox="0 0 199 199" fill="none" xmlns="http://www.w3.org/2000/svg">
<circle cx="99.5" cy="99.5" r="99.5" fill="#262626" fill-opacity="0.5"/>
<path d="M84.2723 103.614C84.3443 103.77 84.3803 103.926 84.3803 104.082C84.3803 104.358 84.2663 104.592 84.0383 104.784C83.8223 104.976 83.5703 105.072 83.2823 105.072C83.0903 105.072 82.9103 105.024 82.7423 104.928C82.5743 104.82 82.4423 104.658 82.3463 104.442L81.2663 102.03H74.9303L73.8503 104.442C73.7543 104.658 73.6223 104.82 73.4543 104.928C73.2863 105.024 73.1003 105.072 72.8963 105.072C72.6203 105.072 72.3683 104.976 72.1403 104.784C71.9123 104.592 71.7983 104.358 71.7983 104.082C71.7983 103.926 71.8343 103.77 71.9063 103.614L76.8743 92.94C76.9823 92.7 77.1443 92.52 77.3603 92.4C77.5883 92.268 77.8283 92.202 78.0803 92.202C78.3323 92.202 78.5663 92.268 78.7823 92.4C79.0103 92.52 79.1783 92.7 79.2863 92.94L84.2723 103.614ZM75.7223 100.23H80.4743L78.0983 94.884L75.7223 100.23ZM91.5775 96.666C91.6735 96.45 91.7995 96.288 91.9555 96.18C92.1235 96.072 92.3035 96.018 92.4955 96.018C92.7715 96.018 93.0175 96.114 93.2335 96.306C93.4615 96.486 93.5755 96.714 93.5755 96.99C93.5755 97.134 93.5395 97.278 93.4675 97.422L90.1375 104.388C90.0295 104.616 89.8735 104.79 89.6695 104.91C89.4775 105.03 89.2615 105.09 89.0215 105.09C88.7935 105.09 88.5715 105.03 88.3555 104.91C88.1515 104.79 87.9955 104.616 87.8875 104.388L84.5395 97.422C84.4795 97.302 84.4495 97.164 84.4495 97.008C84.4495 96.732 84.5635 96.498 84.7915 96.306C85.0315 96.114 85.3015 96.018 85.6015 96.018C86.0335 96.018 86.3515 96.228 86.5555 96.648L89.0755 102.21L91.5775 96.666ZM98.6071 95.982C99.8311 95.982 100.737 96.288 101.325 96.9C101.925 97.5 102.225 98.418 102.225 99.654V104.046C102.225 104.37 102.129 104.628 101.937 104.82C101.745 105 101.481 105.09 101.145 105.09C100.833 105.09 100.575 104.994 100.371 104.802C100.179 104.61 100.083 104.358 100.083 104.046V103.65C99.8791 104.118 99.5551 104.484 99.1111 104.748C98.6791 105.012 98.1751 105.144 97.5991 105.144C97.0111 105.144 96.4771 105.024 95.9971 104.784C95.5171 104.544 95.1391 104.214 94.8631 103.794C94.5871 103.374 94.4491 102.906 94.4491 102.39C94.4491 101.742 94.6111 101.232 94.9351 100.86C95.2711 100.488 95.8111 100.218 96.5551 100.05C97.2991 99.882 98.3251 99.798 99.6331 99.798H100.083V99.384C100.083 98.796 99.9571 98.37 99.7051 98.106C99.4531 97.83 99.0451 97.692 98.4811 97.692C98.1331 97.692 97.7791 97.746 97.4191 97.854C97.0591 97.95 96.6331 98.094 96.1411 98.286C95.8291 98.442 95.6011 98.52 95.4571 98.52C95.2411 98.52 95.0611 98.442 94.9171 98.286C94.7851 98.13 94.7191 97.926 94.7191 97.674C94.7191 97.47 94.7671 97.296 94.8631 97.152C94.9711 96.996 95.1451 96.852 95.3851 96.72C95.8051 96.492 96.3031 96.312 96.8791 96.18C97.4671 96.048 98.0431 95.982 98.6071 95.982ZM98.0491 103.524C98.6491 103.524 99.1351 103.326 99.5071 102.93C99.8911 102.522 100.083 102 100.083 101.364V100.986H99.7591C98.9551 100.986 98.3311 101.022 97.8871 101.094C97.4431 101.166 97.1251 101.292 96.9331 101.472C96.7411 101.652 96.6451 101.898 96.6451 102.21C96.6451 102.594 96.7771 102.912 97.0411 103.164C97.3171 103.404 97.6531 103.524 98.0491 103.524ZM109.084 103.434C109.684 103.47 109.984 103.74 109.984 104.244C109.984 104.532 109.864 104.754 109.624 104.91C109.396 105.054 109.066 105.114 108.634 105.09L108.148 105.054C106.132 104.91 105.124 103.83 105.124 101.814V97.89H104.224C103.9 97.89 103.648 97.818 103.468 97.674C103.3 97.53 103.216 97.32 103.216 97.044C103.216 96.768 103.3 96.558 103.468 96.414C103.648 96.27 103.9 96.198 104.224 96.198H105.124V94.542C105.124 94.218 105.226 93.96 105.43 93.768C105.634 93.576 105.91 93.48 106.258 93.48C106.594 93.48 106.864 93.576 107.068 93.768C107.272 93.96 107.374 94.218 107.374 94.542V96.198H108.904C109.228 96.198 109.474 96.27 109.642 96.414C109.822 96.558 109.912 96.768 109.912 97.044C109.912 97.32 109.822 97.53 109.642 97.674C109.474 97.818 109.228 97.89 108.904 97.89H107.374V101.976C107.374 102.864 107.782 103.338 108.598 103.398L109.084 103.434ZM114.972 95.982C116.196 95.982 117.102 96.288 117.69 96.9C118.29 97.5 118.59 98.418 118.59 99.654V104.046C118.59 104.37 118.494 104.628 118.302 104.82C118.11 105 117.846 105.09 117.51 105.09C117.198 105.09 116.94 104.994 116.736 104.802C116.544 104.61 116.448 104.358 116.448 104.046V103.65C116.244 104.118 115.92 104.484 115.476 104.748C115.044 105.012 114.54 105.144 113.964 105.144C113.376 105.144 112.842 105.024 112.362 104.784C111.882 104.544 111.504 104.214 111.228 103.794C110.952 103.374 110.814 102.906 110.814 102.39C110.814 101.742 110.976 101.232 111.3 100.86C111.636 100.488 112.176 100.218 112.92 100.05C113.664 99.882 114.69 99.798 115.998 99.798H116.448V99.384C116.448 98.796 116.322 98.37 116.07 98.106C115.818 97.83 115.41 97.692 114.846 97.692C114.498 97.692 114.144 97.746 113.784 97.854C113.424 97.95 112.998 98.094 112.506 98.286C112.194 98.442 111.966 98.52 111.822 98.52C111.606 98.52 111.426 98.442 111.282 98.286C111.15 98.13 111.084 97.926 111.084 97.674C111.084 97.47 111.132 97.296 111.228 97.152C111.336 96.996 111.51 96.852 111.75 96.72C112.17 96.492 112.668 96.312 113.244 96.18C113.832 96.048 114.408 95.982 114.972 95.982ZM114.414 103.524C115.014 103.524 115.5 103.326 115.872 102.93C116.256 102.522 116.448 102 116.448 101.364V100.986H116.124C115.32 100.986 114.696 101.022 114.252 101.094C113.808 101.166 113.49 101.292 113.298 101.472C113.106 101.652 113.01 101.898 113.01 102.21C113.01 102.594 113.142 102.912 113.406 103.164C113.682 103.404 114.018 103.524 114.414 103.524ZM125.791 96.018C126.103 95.994 126.349 96.06 126.529 96.216C126.709 96.372 126.799 96.606 126.799 96.918C126.799 97.242 126.721 97.482 126.565 97.638C126.409 97.794 126.127 97.896 125.719 97.944L125.179 97.998C124.471 98.07 123.949 98.31 123.613 98.718C123.289 99.126 123.127 99.636 123.127 100.248V104.028C123.127 104.376 123.019 104.646 122.803 104.838C122.587 105.018 122.317 105.108 121.993 105.108C121.669 105.108 121.399 105.018 121.183 104.838C120.979 104.646 120.877 104.376 120.877 104.028V97.062C120.877 96.726 120.979 96.468 121.183 96.288C121.399 96.108 121.663 96.018 121.975 96.018C122.287 96.018 122.539 96.108 122.731 96.288C122.923 96.456 123.019 96.702 123.019 97.026V97.746C123.247 97.218 123.583 96.81 124.027 96.522C124.483 96.234 124.987 96.072 125.539 96.036L125.791 96.018Z" fill="#A3A3A3"/>
</svg>
